<svg xmlns="http://www.w3.org/2000/svg" xmlns:xlink="http://www.w3.org/1999/xlink" fill="#000000" width="800" height="800" viewBox="0 0 52 52" xmlns:v="https://vecta.io/nano"><path d="M48.5,2h-45C2.7,2,2,2.7,2,3.5v5C2,9.3,2.7,10,3.5,10h45c0.8,0,1.5-0.7,1.5-1.5v-5C50,2.7,49.3,2,48.5,2z      "/><use xlink:href="#B"/><use xlink:href="#B" y="20"/><path d="M48.5 44h-39A1.54 1.54 0 0 1 8 42.5v-7A1.54 1.54 0 0 0 6.5 34h-3A1.54 1.54 0 0 0 2 35.5v13A1.54 1.54 0 0 0 3.5 50h3H8h40.5a1.54 1.54 0 0 0 1.5-1.5v-3a1.54 1.54 0 0 0-1.5-1.5zm0-20h-39A1.54 1.54 0 0 1 8 22.5v-7A1.54 1.54 0 0 0 6.5 14h-3A1.54 1.54 0 0 0 2 15.5v13A1.54 1.54 0 0 0 3.5 30h2H8h40.5a1.54 1.54 0 0 0 1.5-1.5v-3a1.54 1.54 0 0 0-1.5-1.5z"/><defs ><path id="B" d="M48.5 14h-35a1.54 1.54 0 0 0-1.5 1.5v3a1.54 1.54 0 0 0 1.5 1.5h35a1.54 1.54 0 0 0 1.5-1.5v-3a1.54 1.54 0 0 0-1.5-1.5z"/></defs></svg>