<svg xmlns="http://www.w3.org/2000/svg" width="800" height="800" viewBox="0 0 24 24" fill="none" xmlns:v="https://vecta.io/nano"><path fill-rule="evenodd" d="M12 22c-4.714 0-7.071 0-8.536-1.465S2 16.714 2 12s0-7.071 1.464-8.536S7.286 2 12 2s7.071 0 8.535 1.464S22 7.286 22 12s0 7.071-1.465 8.535S16.714 22 12 22zM8.97 8.97a.75.75 0 0 1 1.061 0l1.97 1.97 1.97-1.97a.75.75 0 0 1 1.061 1.061L13.061 12l1.97 1.97a.75.75 0 0 1-1.061 1.061L12 13.061l-1.97 1.97A.75.75 0 0 1 8.97 13.97l1.97-1.97-1.97-1.97a.75.75 0 0 1 0-1.061z" fill="currentColor"/></svg>
